<?xml version="1.0" encoding="utf-8"?>
<!-- Generator: Adobe Illustrator 22.0.1, SVG Export Plug-In . SVG Version: 6.00 Build 0)  -->
<svg version="1.1" id="Capa_1" xmlns="http://www.w3.org/2000/svg" xmlns:xlink="http://www.w3.org/1999/xlink" x="0px" y="0px"
	 viewBox="0 0 100 100" style="enable-background:new 0 0 100 100;" xml:space="preserve">
<style type="text/css">
	.st0{fill:#FFFFFF;}
</style>
<path class="st0" d="M49.5,94.7c-24.6,0-44.7-20-44.7-44.7s20-44.7,44.7-44.7s44.7,20,44.7,44.7S74.1,94.7,49.5,94.7z M68.4,68.9
	c1.8-1.8,1.8-4.6,0-6.3L55.8,50l12.6-12.6c1.8-1.8,1.8-4.6,0-6.3c-1.8-1.8-4.6-1.8-6.3,0L49.5,43.7L36.9,31.1
	c-1.8-1.8-4.6-1.8-6.3,0c-1.8,1.8-1.8,4.6,0,6.3L43.2,50L30.6,62.6c-1.8,1.8-1.8,4.6,0,6.3c1.8,1.8,4.6,1.8,6.3,0l12.6-12.6
	l12.6,12.6C63.9,70.7,66.7,70.7,68.4,68.9z"/>
</svg>
